<?xml version="1.0" encoding="UTF-8"?>
<!-- Generator: Adobe Illustrator 19.1.0, SVG Export Plug-In . SVG Version: 6.00 Build 0)  -->
<svg xmlns="http://www.w3.org/2000/svg" xmlns:xlink="http://www.w3.org/1999/xlink" version="1.1" id="Layer_1" x="0px" y="0px" viewBox="-429 231 100 100" style="enable-background:new -429 231 100 100;" xml:space="preserve">
<style type="text/css">
	.st0{fill:#FFFFFF;}
</style>
<g>
	<g>
		<path class="st0" d="M-391.5,274c-0.1,0-0.3,0-0.4-0.1c-0.3-0.2-0.4-0.6-0.3-0.9c1-2.9,3.3-5.1,6.3-6.1c0.3-0.1,0.7,0,0.9,0.3    c0.2,0.3,0.1,0.7-0.1,0.9l-5.8,5.6C-391.1,273.9-391.3,274-391.5,274z"/>
	</g>
	<g>
		<path class="st0" d="M-390.2,253.5c-0.3,0-0.6-0.2-0.7-0.5l-0.1-0.2c0-0.1-0.1-0.2-0.1-0.3c0-0.3,0.2-0.6,0.5-0.7    c0.4-0.2,0.8,0,1,0.4l0.1,0.2c0,0.1,0.1,0.2,0.1,0.3c0,0.3-0.2,0.6-0.5,0.7C-390.1,253.5-390.2,253.5-390.2,253.5z"/>
	</g>
	<g>
		<path class="st0" d="M-389.2,256c-0.3,0-0.6-0.2-0.7-0.5l-0.5-1.1c0-0.1-0.1-0.2-0.1-0.3c0-0.3,0.2-0.6,0.5-0.7    c0.4-0.2,0.8,0,1,0.4l0.5,1.1c0,0.1,0.1,0.2,0.1,0.3c0,0.3-0.2,0.6-0.5,0.7C-389.1,256-389.1,256-389.2,256z"/>
	</g>
	<g>
		<path class="st0" d="M-387.8,259.6c-0.3,0-0.6-0.2-0.7-0.5l-0.9-2.2c0-0.1-0.1-0.2-0.1-0.3c0-0.3,0.2-0.6,0.5-0.7    c0.4-0.2,0.8,0,1,0.4l0.9,2.2c0,0.1,0.1,0.2,0.1,0.3c0,0.3-0.2,0.6-0.5,0.7C-387.6,259.6-387.7,259.6-387.8,259.6z"/>
	</g>
	<g>
		<path class="st0" d="M-406.7,291.8c-0.3,0-0.6-0.2-0.7-0.5c0-0.1-0.1-0.2-0.1-0.3c0-0.3,0.2-0.6,0.5-0.7l0.2-0.1    c0.4-0.2,0.8,0,1,0.4c0,0.1,0.1,0.2,0.1,0.3c0,0.3-0.2,0.6-0.5,0.7l-0.2,0.1C-406.5,291.8-406.6,291.8-406.7,291.8z"/>
	</g>
	<g>
		<path class="st0" d="M-405.1,291.1c-0.3,0-0.6-0.2-0.7-0.5c0-0.1-0.1-0.2-0.1-0.3c0-0.3,0.2-0.6,0.5-0.7l1.1-0.5    c0.4-0.2,0.8,0,1,0.4c0,0.1,0.1,0.2,0.1,0.3c0,0.3-0.2,0.6-0.5,0.7l-1.1,0.5C-404.9,291.1-405,291.1-405.1,291.1z"/>
	</g>
	<g>
		<path class="st0" d="M-402.6,290.1c-0.3,0-0.6-0.2-0.7-0.5c0-0.1-0.1-0.2-0.1-0.3c0-0.3,0.2-0.6,0.5-0.7l2.2-0.9    c0.4-0.2,0.8,0,1,0.4c0,0.1,0.1,0.2,0.1,0.3c0,0.3-0.2,0.6-0.5,0.7l-2.2,0.9C-402.4,290.1-402.5,290.1-402.6,290.1z"/>
	</g>
	<g>
		<path class="st0" d="M-408.6,280.7h-0.3c-0.4,0-0.8-0.3-0.8-0.8s0.3-0.8,0.8-0.8h0.3c0.4,0,0.8,0.3,0.8,0.8    S-408.2,280.7-408.6,280.7z"/>
	</g>
	<g>
		<path class="st0" d="M-405.9,280.7L-405.9,280.7h-1.2c-0.4,0-0.7-0.3-0.7-0.7l0,0c0-0.4,0.3-0.7,0.8-0.7l0,0h1.2    c0.4,0,0.7,0.3,0.7,0.7l0,0C-405.2,280.4-405.5,280.7-405.9,280.7z"/>
	</g>
	<g>
		<path class="st0" d="M-404.4,280.7c-0.4,0-0.7-0.3-0.8-0.7l0,0c0-0.4,0.3-0.7,0.7-0.7h2.4l0,0c0.4,0,0.7,0.3,0.8,0.7    c0.1,0.4-0.3,0.8-0.7,0.8L-404.4,280.7L-404.4,280.7z"/>
	</g>
	<g>
		<path class="st0" d="M-400,260c-0.2,0-0.4-0.1-0.5-0.2l-0.2-0.2c-0.1-0.1-0.2-0.3-0.2-0.5c0-0.2,0.1-0.4,0.2-0.5    c0.3-0.3,0.8-0.3,1.1,0l0.2,0.2c0.1,0.1,0.2,0.3,0.2,0.5c0,0.2-0.1,0.4-0.2,0.5C-399.5,259.9-399.8,260-400,260z"/>
	</g>
	<g>
		<path class="st0" d="M-398.1,261.9c-0.2,0-0.4-0.1-0.5-0.2l-0.9-0.9c-0.1-0.1-0.2-0.3-0.2-0.5c0-0.2,0.1-0.4,0.2-0.5    c0.3-0.3,0.8-0.3,1.1,0l0.9,0.9c0.1,0.1,0.2,0.3,0.2,0.5c0,0.2-0.1,0.4-0.2,0.5C-397.7,261.8-397.9,261.9-398.1,261.9z"/>
	</g>
	<g>
		<path class="st0" d="M-395.3,264.7c-0.2,0-0.4-0.1-0.5-0.2l-1.7-1.7c-0.1-0.1-0.2-0.3-0.2-0.5c0-0.2,0.1-0.4,0.2-0.5    c0.3-0.3,0.8-0.3,1.1,0l1.7,1.7c0.1,0.1,0.2,0.3,0.2,0.5s-0.1,0.4-0.2,0.5C-394.8,264.6-395.1,264.7-395.3,264.7z"/>
	</g>
	<g>
		<path class="st0" d="M-406.2,269.3c-0.1,0-0.2,0-0.3-0.1l-0.2-0.1c-0.3-0.1-0.5-0.4-0.5-0.7c0-0.1,0-0.2,0.1-0.3    c0.2-0.4,0.6-0.6,1-0.4l0.2,0.1c0.3,0.1,0.5,0.4,0.5,0.7c0,0.1,0,0.2-0.1,0.3C-405.7,269.1-405.9,269.3-406.2,269.3z"/>
	</g>
	<g>
		<path class="st0" d="M-403.8,270.3c-0.1,0-0.2,0-0.3-0.1l-1.1-0.5c-0.3-0.1-0.5-0.4-0.5-0.7c0-0.1,0-0.2,0.1-0.3    c0.2-0.4,0.6-0.6,1-0.4l1.1,0.5c0.3,0.1,0.5,0.4,0.5,0.7c0,0.1,0,0.2-0.1,0.3C-403.2,270.1-403.5,270.3-403.8,270.3z"/>
	</g>
	<g>
		<path class="st0" d="M-400.2,271.8c-0.1,0-0.2,0-0.3-0.1l-2.2-0.9c-0.3-0.1-0.5-0.4-0.5-0.7c0-0.1,0-0.2,0.1-0.3    c0.2-0.4,0.6-0.6,1-0.4l2.2,0.9c0.3,0.1,0.5,0.4,0.5,0.7c0,0.1,0,0.2-0.1,0.3C-399.6,271.7-399.9,271.8-400.2,271.8z"/>
	</g>
	<g>
		<path class="st0" d="M-379.3,251.4c-0.4,0-0.7-0.3-0.8-0.7v-0.3l0,0c0-0.4,0.3-0.7,0.7-0.8l0,0c0.4,0,0.7,0.3,0.8,0.7v0.3l0,0    C-378.5,251.1-378.9,251.4-379.3,251.4L-379.3,251.4z"/>
	</g>
	<g>
		<path class="st0" d="M-379.3,254.1c-0.4,0-0.7-0.3-0.8-0.7v-1.2l0,0c0-0.4,0.3-0.7,0.7-0.7l0,0c0.4,0,0.7,0.3,0.8,0.7v1.2l0,0    C-378.5,253.8-378.9,254.1-379.3,254.1L-379.3,254.1z"/>
	</g>
	<g>
		<path class="st0" d="M-379.3,258L-379.3,258c-0.4,0-0.8-0.3-0.8-0.8v-2.4c0-0.4,0.3-0.7,0.8-0.7l0,0c0.4,0,0.7,0.3,0.7,0.8v2.4    C-378.5,257.7-378.9,258-379.3,258z"/>
	</g>
	<g>
		<path class="st0" d="M-368.3,253.5c-0.1,0-0.2,0-0.3-0.1c-0.3-0.1-0.5-0.4-0.5-0.7c0-0.1,0-0.2,0.1-0.3l0.1-0.2    c0.2-0.4,0.6-0.6,1-0.4c0.3,0.1,0.5,0.4,0.5,0.7c0,0.1,0,0.2-0.1,0.3l-0.1,0.2C-367.7,253.4-368,253.5-368.3,253.5z"/>
	</g>
	<g>
		<path class="st0" d="M-369.3,256c-0.1,0-0.2,0-0.3-0.1c-0.3-0.1-0.5-0.4-0.5-0.7c0-0.1,0-0.2,0.1-0.3l0.5-1.1    c0.2-0.4,0.6-0.6,1-0.4c0.3,0.1,0.5,0.4,0.5,0.7c0,0.1,0,0.2-0.1,0.3l-0.5,1.1C-368.7,255.8-369,256-369.3,256z"/>
	</g>
	<g>
		<path class="st0" d="M-370.8,259.6c-0.1,0-0.2,0-0.3-0.1c-0.3-0.1-0.5-0.4-0.5-0.7c0-0.1,0-0.2,0.1-0.3l0.9-2.2    c0.2-0.4,0.6-0.6,1-0.4c0.3,0.1,0.5,0.4,0.5,0.7c0,0.1,0,0.2-0.1,0.3l-0.9,2.2C-370.2,259.5-370.5,259.6-370.8,259.6z"/>
	</g>
	<g>
		<path class="st0" d="M-351.9,291.8c-0.1,0-0.2,0-0.3-0.1l-0.2-0.1c-0.3-0.1-0.5-0.4-0.5-0.7c0-0.1,0-0.2,0.1-0.3    c0.2-0.4,0.6-0.6,1-0.4l0.2,0.1c0.3,0.1,0.5,0.4,0.5,0.7c0,0.1,0,0.2-0.1,0.3C-351.3,291.6-351.6,291.8-351.9,291.8z"/>
	</g>
	<g>
		<path class="st0" d="M-353.5,291.1c-0.1,0-0.2,0-0.3-0.1l-1.1-0.5c-0.3-0.1-0.5-0.4-0.5-0.7c0-0.1,0-0.2,0.1-0.3    c0.2-0.4,0.6-0.6,1-0.4l1.1,0.5c0.3,0.1,0.5,0.4,0.5,0.7c0,0.1,0,0.2-0.1,0.3C-352.9,290.9-353.2,291.1-353.5,291.1z"/>
	</g>
	<g>
		<path class="st0" d="M-356,290.1c-0.1,0-0.2,0-0.3-0.1l-2.2-0.9c-0.3-0.1-0.5-0.4-0.5-0.7c0-0.1,0-0.2,0.1-0.3    c0.2-0.4,0.6-0.6,1-0.4l2.2,0.9c0.3,0.1,0.5,0.4,0.5,0.7c0,0.1,0,0.2-0.1,0.3C-355.4,289.9-355.7,290.1-356,290.1z"/>
	</g>
	<g>
		<path class="st0" d="M-349.7,280.7h-0.3c-0.4,0-0.8-0.3-0.8-0.8s0.3-0.8,0.8-0.8h0.3c0.4,0,0.8,0.3,0.8,0.8    S-349.3,280.7-349.7,280.7z"/>
	</g>
	<g>
		<path class="st0" d="M-352.7,280.7c-0.4,0-0.7-0.3-0.8-0.7l0,0c0-0.4,0.3-0.7,0.7-0.7h1.2l0,0c0.4,0,0.7,0.3,0.8,0.7l0,0    c0,0.4-0.3,0.7-0.7,0.7H-352.7L-352.7,280.7z"/>
	</g>
	<g>
		<path class="st0" d="M-354.1,280.7L-354.1,280.7h-2.4c-0.4,0-0.7-0.3-0.7-0.7l0,0c0-0.4,0.3-0.7,0.8-0.7l0,0h2.4    c0.4,0,0.7,0.3,0.7,0.7l0,0C-353.4,280.4-353.7,280.7-354.1,280.7z"/>
	</g>
	<g>
		<path class="st0" d="M-358.6,260c-0.2,0-0.4-0.1-0.5-0.2c-0.1-0.1-0.2-0.3-0.2-0.5c0-0.2,0.1-0.4,0.2-0.5l0.2-0.2    c0.3-0.3,0.8-0.3,1.1,0c0.1,0.1,0.2,0.3,0.2,0.5c0,0.2-0.1,0.4-0.2,0.5l-0.2,0.2C-358.2,259.9-358.4,260-358.6,260z"/>
	</g>
	<g>
		<path class="st0" d="M-360.5,261.9c-0.2,0-0.4-0.1-0.5-0.2c-0.1-0.1-0.2-0.3-0.2-0.5c0-0.2,0.1-0.4,0.2-0.5l0.9-0.9    c0.3-0.3,0.8-0.3,1.1,0c0.1,0.1,0.2,0.3,0.2,0.5c0,0.2-0.1,0.4-0.2,0.5l-0.9,0.9C-360.1,261.8-360.3,261.9-360.5,261.9z"/>
	</g>
	<g>
		<path class="st0" d="M-363.2,264.7c-0.2,0-0.4-0.1-0.5-0.2c-0.1-0.1-0.3-0.4-0.3-0.6c0-0.2,0.1-0.4,0.2-0.5l1.7-1.7    c0.3-0.3,0.8-0.3,1.1,0c0.1,0.1,0.2,0.3,0.2,0.5c0,0.2-0.1,0.4-0.2,0.5l-1.7,1.7C-362.8,264.6-363,264.7-363.2,264.7z"/>
	</g>
	<g>
		<path class="st0" d="M-380.5,309.5c-1.2,0-2.3-0.6-2.7-1.6c-0.1-0.3-0.1-0.6,0.2-0.9c0.2-0.2,0.6-0.3,0.9-0.1l2,1.1    c0.3,0.2,0.5,0.5,0.4,0.8C-379.8,309.3-380.1,309.5-380.5,309.5z"/>
	</g>
	<g>
		<path class="st0" d="M-379.3,311.5c-3.6,0-6.6-2.3-6.6-5.2c0-0.4,0.3-0.8,0.8-0.8h11.7c0.4,0,0.8,0.3,0.8,0.8    C-372.7,309.1-375.6,311.5-379.3,311.5z M-384.3,307c0.5,1.7,2.5,3,5,3s4.5-1.3,5-3H-384.3z"/>
	</g>
	<g>
		<path class="st0" d="M-369.5,304.1H-389c-0.4,0-0.8-0.3-0.8-0.8s0.3-0.8,0.8-0.8h19.5c0.4,0,0.8,0.3,0.8,0.8    S-369.1,304.1-369.5,304.1z"/>
	</g>
	<g>
		<path class="st0" d="M-369.5,301.1H-389c-0.4,0-0.8-0.3-0.8-0.8s0.3-0.8,0.8-0.8h19.5c0.4,0,0.8,0.3,0.8,0.8    S-369.1,301.1-369.5,301.1z"/>
	</g>
	<g>
		<path class="st0" d="M-369.5,298.2H-389c-0.4,0-0.8-0.3-0.8-0.8s0.3-0.8,0.8-0.8h19.5c0.4,0,0.8,0.3,0.8,0.8    S-369.1,298.2-369.5,298.2z"/>
	</g>
	<g>
		<path class="st0" d="M-370.9,307h-16.7c-1.1,0-2-0.8-2.1-1.9c0-0.1,0-0.1,0-0.2v-9.7l-0.5-0.4c-4.6-3.5-7.3-8.8-7.3-14.6    c0-10.1,8.2-18.3,18.3-18.3c10.1,0,18.3,8.2,18.3,18.3c0,5.8-2.7,11.1-7.3,14.6l-0.5,0.4v9.8c0,0.1,0,0.1,0,0.2    C-368.9,306.2-369.8,307-370.9,307z M-388.3,304.8C-388.3,304.9-388.3,304.9-388.3,304.8c0,0.4,0.3,0.7,0.6,0.7h16.7    c0.3,0,0.6-0.3,0.6-0.6c0,0,0,0,0-0.1v-10c0-0.2,0.1-0.4,0.3-0.6l0.8-0.6c4.3-3.2,6.7-8.1,6.7-13.5c0-9.3-7.5-16.8-16.8-16.8    c-9.3,0-16.8,7.5-16.8,16.8c0,5.3,2.5,10.2,6.7,13.5l0.8,0.6c0.2,0.1,0.3,0.4,0.3,0.6v10H-388.3z"/>
	</g>
	<g>
		<path class="st0" d="M-352.3,269.3c-0.3,0-0.6-0.2-0.7-0.5c0-0.1-0.1-0.2-0.1-0.3c0-0.3,0.2-0.6,0.5-0.7l0.2-0.1    c0.4-0.2,0.8,0,1,0.4c0,0.1,0.1,0.2,0.1,0.3c0,0.3-0.2,0.6-0.5,0.7l-0.2,0.1C-352.1,269.2-352.2,269.3-352.3,269.3z"/>
	</g>
	<g>
		<path class="st0" d="M-354.8,270.3c-0.3,0-0.6-0.2-0.7-0.5c0-0.1-0.1-0.2-0.1-0.3c0-0.3,0.2-0.6,0.5-0.7l1.1-0.5    c0.4-0.2,0.8,0,1,0.4c0,0.1,0.1,0.2,0.1,0.3c0,0.3-0.2,0.6-0.5,0.7l-1.1,0.5C-354.6,270.3-354.7,270.3-354.8,270.3z"/>
	</g>
	<g>
		<path class="st0" d="M-358.4,271.8c-0.3,0-0.6-0.2-0.7-0.5c0-0.1-0.1-0.2-0.1-0.3c0-0.3,0.2-0.6,0.5-0.7l2.2-0.9    c0.4-0.2,0.8,0,1,0.4c0,0.1,0.1,0.2,0.1,0.3c0,0.3-0.2,0.6-0.5,0.7l-2.2,0.9C-358.2,271.8-358.3,271.8-358.4,271.8z"/>
	</g>
	<g>
		<path class="st0" d="M-377.9,298.2h-2.8c-0.8,0-1.5-0.7-1.5-1.5v-8.8l-0.1-0.2l-7.2-7.2c-0.3-0.3-0.4-0.6-0.4-1s0.2-0.8,0.4-1l2-2    c0.6-0.6,1.5-0.6,2,0l6.1,6.1l6.1-6.1c0.3-0.3,0.6-0.4,1-0.4l0,0c0.4,0,0.8,0.2,1,0.4l2,2c0.3,0.3,0.4,0.6,0.4,1s-0.2,0.8-0.4,1    l-7.2,7.2l-0.1,0.2v8.8C-376.4,297.5-377.1,298.2-377.9,298.2z M-386.5,277.5l-1.9,2l7.2,7.1c0.3,0.3,0.5,0.8,0.5,1.3v8.8h2.8V288    c0-0.4,0.2-1,0.5-1.3l7.2-7.2l-2-1.9l-6.3,6.4c-0.2,0.2-0.5,0.3-0.8,0.3c-0.3,0-0.6-0.1-0.8-0.3L-386.5,277.5z"/>
	</g>
	<g>
		<path class="st0" d="M-379,329.6c-26.8,0-48.6-21.8-48.6-48.6s21.8-48.6,48.6-48.6s48.6,21.8,48.6,48.6S-352.2,329.6-379,329.6z     M-379,234.4c-25.7,0-46.6,20.9-46.6,46.6s20.9,46.6,46.6,46.6s46.6-20.9,46.6-46.6S-353.3,234.4-379,234.4z"/>
	</g>
</g>
</svg>