<?xml version="1.0" encoding="utf-8"?>
<!-- Generator: Adobe Illustrator 19.1.0, SVG Export Plug-In . SVG Version: 6.00 Build 0)  -->
<svg xmlns="http://www.w3.org/2000/svg" xmlns:xlink="http://www.w3.org/1999/xlink" version="1.1" id="Layer_1" x="0px" y="0px" viewBox="-435 237 88 88" style="enable-background:new -435 237 88 88;" xml:space="preserve">
<style type="text/css">
	.st0{fill:#FFFFFF;}
	.st1{clip-path:url(#SVGID_4_);}
	.st2{clip-path:url(#SVGID_8_);}
</style>
<g>
	<g>
		<path class="st0" d="M-391,323.4c-23.4,0-42.4-19-42.4-42.4s19-42.4,42.4-42.4s42.4,19,42.4,42.4S-367.6,323.4-391,323.4z     M-391,240.5c-22.4,0-40.5,18.1-40.5,40.5s18.1,40.5,40.5,40.5s40.5-18.1,40.5-40.5S-368.6,240.5-391,240.5z"/>
	</g>
	<g>
		<path class="st0" d="M-406.5,268.4c-0.4,0-0.8-0.3-0.8-0.8c0-0.5,0.3-0.8,0.8-0.8c0.5,0,0.8,0.3,0.8,0.7v0.1    C-405.9,268-406.2,268.4-406.5,268.4z"/>
	</g>
	<g>
		<path class="st0" d="M-406.5,287.5c-0.4,0-0.8-0.3-0.8-0.8v-0.3c0-0.4,0.3-0.8,0.8-0.8c0.5,0,0.8,0.3,0.8,0.8v0.3    C-405.9,287.1-406.2,287.5-406.5,287.5z M-406.5,285.3c-0.4,0-0.8-0.3-0.8-0.8v-0.3c0-0.4,0.3-0.8,0.8-0.8c0.5,0,0.8,0.3,0.8,0.8    v0.3C-405.9,284.9-406.2,285.3-406.5,285.3z M-406.5,283.1c-0.4,0-0.8-0.3-0.8-0.8v-0.3c0-0.4,0.3-0.8,0.8-0.8    c0.5,0,0.8,0.3,0.8,0.8v0.3C-405.9,282.7-406.2,283.1-406.5,283.1z M-406.5,280.9c-0.4,0-0.8-0.3-0.8-0.8v-0.3    c0-0.4,0.3-0.8,0.8-0.8c0.5,0,0.8,0.3,0.8,0.8v0.3C-405.9,280.5-406.2,280.9-406.5,280.9z M-406.5,278.7c-0.4,0-0.8-0.3-0.8-0.8    v-0.3c0-0.4,0.3-0.8,0.8-0.8c0.5,0,0.8,0.3,0.8,0.8v0.3C-405.9,278.3-406.2,278.7-406.5,278.7z M-406.5,276.5    c-0.4,0-0.8-0.3-0.8-0.8v-0.3c0-0.4,0.3-0.8,0.8-0.8c0.5,0,0.8,0.3,0.8,0.8v0.3C-405.9,276.1-406.2,276.5-406.5,276.5z     M-406.5,274.2c-0.4,0-0.8-0.3-0.8-0.8v-0.3c0-0.4,0.3-0.8,0.8-0.8c0.5,0,0.8,0.3,0.8,0.8v0.3    C-405.9,273.9-406.2,274.2-406.5,274.2z M-406.5,272c-0.4,0-0.8-0.3-0.8-0.8v-0.3c0-0.4,0.3-0.8,0.8-0.8c0.5,0,0.8,0.3,0.8,0.8    v0.3C-405.9,271.7-406.2,272-406.5,272z M-406.5,269.8c-0.4,0-0.8-0.3-0.8-0.8v-0.3c0-0.4,0.3-0.8,0.8-0.8c0.5,0,0.8,0.3,0.8,0.8    v0.3C-405.9,269.5-406.2,269.8-406.5,269.8z"/>
	</g>
	<g>
		<path class="st0" d="M-406.5,289.3c-0.4,0-0.8-0.3-0.8-0.8s0.3-0.8,0.8-0.8c0.5,0,0.8,0.3,0.8,0.7v0.1    C-405.9,289-406.2,289.3-406.5,289.3z"/>
	</g>
	<g>
		<path class="st0" d="M-406.5,269.5c-0.4,0-0.8-0.3-0.8-0.8v-6.9c0-0.4,0.3-0.8,0.8-0.8c0.5,0,0.8,0.3,0.8,0.8v6.9    C-405.9,269.1-406.2,269.5-406.5,269.5z"/>
	</g>
	<g>
		<path class="st0" d="M-406.5,259.5c-0.4,0-0.8-0.3-0.8-0.8c0-0.5,0.3-0.8,0.8-0.8c0.5,0,0.8,0.3,0.8,0.7v0.1    C-405.9,259.2-406.2,259.5-406.5,259.5z"/>
	</g>
	<g>
		<path class="st0" d="M-406.5,261c-0.4,0-0.8-0.3-0.8-0.8V260c0-0.4,0.3-0.8,0.8-0.8c0.5,0,0.8,0.3,0.8,0.8v0.3    C-405.9,260.8-406.2,261-406.5,261z"/>
	</g>
	<g>
		<path class="st0" d="M-404.1,266c-0.4,0-0.8-0.3-0.8-0.8c0-0.5,0.3-0.8,0.7-0.8h0.1c0.4,0,0.8,0.3,0.8,0.8    C-403.4,265.7-403.8,266-404.1,266z M-406.5,263.6c-0.4,0-0.8-0.3-0.8-0.8s0.3-0.8,0.8-0.8c0.5,0,0.8,0.3,0.8,0.7v0.1    C-405.9,263.3-406.2,263.6-406.5,263.6z"/>
	</g>
	<g>
		<path class="st0" d="M-385.1,266h-0.3c-0.4,0-0.8-0.3-0.8-0.8c0-0.5,0.3-0.8,0.8-0.8h0.3c0.4,0,0.8,0.3,0.8,0.8    C-384.3,265.7-384.7,266-385.1,266z M-387.3,266h-0.3c-0.4,0-0.8-0.3-0.8-0.8c0-0.5,0.3-0.8,0.8-0.8h0.3c0.4,0,0.8,0.3,0.8,0.8    C-386.5,265.7-386.9,266-387.3,266z M-389.5,266h-0.3c-0.4,0-0.8-0.3-0.8-0.8c0-0.5,0.3-0.8,0.8-0.8h0.3c0.4,0,0.8,0.3,0.8,0.8    C-388.7,265.7-389.1,266-389.5,266z M-391.7,266h-0.3c-0.4,0-0.8-0.3-0.8-0.8c0-0.5,0.3-0.8,0.8-0.8h0.3c0.4,0,0.8,0.3,0.8,0.8    C-390.9,265.7-391.3,266-391.7,266z M-393.9,266h-0.3c-0.4,0-0.8-0.3-0.8-0.8c0-0.5,0.3-0.8,0.8-0.8h0.3c0.4,0,0.8,0.3,0.8,0.8    C-393.1,265.7-393.5,266-393.9,266z M-396.1,266h-0.3c-0.4,0-0.8-0.3-0.8-0.8c0-0.5,0.3-0.8,0.8-0.8h0.3c0.4,0,0.8,0.3,0.8,0.8    C-395.3,265.7-395.7,266-396.1,266z M-398.3,266h-0.3c-0.4,0-0.8-0.3-0.8-0.8c0-0.5,0.3-0.8,0.8-0.8h0.3c0.4,0,0.8,0.3,0.8,0.8    C-397.5,265.7-397.9,266-398.3,266z M-400.5,266h-0.3c-0.4,0-0.8-0.3-0.8-0.8c0-0.5,0.3-0.8,0.8-0.8h0.3c0.4,0,0.8,0.3,0.8,0.8    C-399.7,265.7-400.1,266-400.5,266z M-402.7,266h-0.3c-0.4,0-0.8-0.3-0.8-0.8c0-0.5,0.3-0.8,0.8-0.8h0.3c0.4,0,0.8,0.3,0.8,0.8    C-401.9,265.7-402.3,266-402.7,266z"/>
	</g>
	<g>
		<path class="st0" d="M-383.2,266c-0.4,0-0.8-0.3-0.8-0.8c0-0.5,0.3-0.8,0.7-0.8h0.1c0.4,0,0.8,0.3,0.8,0.8    C-382.5,265.7-382.8,266-383.2,266z"/>
	</g>
	<g>
		<path class="st0" d="M-403.1,266h-6.9c-0.4,0-0.8-0.3-0.8-0.8c0-0.5,0.3-0.8,0.8-0.8h6.9c0.4,0,0.8,0.3,0.8,0.8    C-402.3,265.7-402.7,266-403.1,266z"/>
	</g>
	<g>
		<path class="st0" d="M-413.4,266c-0.4,0-0.8-0.3-0.8-0.8c0-0.5,0.3-0.8,0.7-0.8h0.1c0.4,0,0.8,0.3,0.8,0.8    C-412.6,265.7-413,266-413.4,266z"/>
	</g>
	<g>
		<path class="st0" d="M-411.9,266h-0.3c-0.4,0-0.8-0.3-0.8-0.8c0-0.5,0.3-0.8,0.8-0.8h0.3c0.4,0,0.8,0.3,0.8,0.8    C-411.1,265.7-411.5,266-411.9,266z"/>
	</g>
	<g>
		<path class="st0" d="M-375.5,295.1c-0.4,0-0.8-0.3-0.8-0.7v-0.1c0-0.4,0.3-0.8,0.8-0.8c0.5,0,0.8,0.3,0.8,0.8    C-374.7,294.8-375.1,295.1-375.5,295.1z M-409.6,266c-0.4,0-0.8-0.3-0.8-0.8c0-0.5,0.3-0.8,0.7-0.8h0.1c0.4,0,0.8,0.3,0.8,0.8    C-408.8,265.7-409.2,266-409.6,266z"/>
	</g>
	<g>
		<path class="st0" d="M-375.5,294c-0.4,0-0.8-0.3-0.8-0.8v-0.3c0-0.4,0.3-0.8,0.8-0.8c0.5,0,0.8,0.4,0.8,0.8v0.3    C-374.7,293.7-375.1,294-375.5,294z M-375.5,291.7c-0.4,0-0.8-0.3-0.8-0.8v-0.3c0-0.4,0.3-0.8,0.8-0.8c0.5,0,0.8,0.3,0.8,0.8v0.3    C-374.7,291.5-375.1,291.7-375.5,291.7z M-375.5,289.6c-0.4,0-0.8-0.3-0.8-0.8v-0.2c0-0.4,0.3-0.8,0.8-0.8c0.5,0,0.8,0.4,0.8,0.8    v0.3C-374.7,289.3-375.1,289.6-375.5,289.6z M-375.5,287.5c-0.4,0-0.8-0.3-0.8-0.8v-0.3c0-0.4,0.3-0.8,0.8-0.8    c0.5,0,0.8,0.3,0.8,0.8v0.3C-374.7,287.1-375.1,287.5-375.5,287.5z M-375.5,285.3c-0.4,0-0.8-0.3-0.8-0.8v-0.3    c0-0.4,0.3-0.8,0.8-0.8c0.5,0,0.8,0.3,0.8,0.8v0.3C-374.7,285-375.1,285.3-375.5,285.3z M-375.5,283.2c-0.4,0-0.8-0.3-0.8-0.8    v-0.3c0-0.4,0.3-0.8,0.8-0.8c0.5,0,0.8,0.3,0.8,0.8v0.3C-374.7,282.9-375.1,283.2-375.5,283.2z M-375.5,281.1    c-0.4,0-0.8-0.3-0.8-0.8V280c0-0.4,0.3-0.8,0.8-0.8c0.5,0,0.8,0.4,0.8,0.8v0.3C-374.7,280.7-375.1,281.1-375.5,281.1z     M-375.5,278.9c-0.4,0-0.8-0.3-0.8-0.8v-0.3c0-0.4,0.3-0.8,0.8-0.8c0.5,0,0.8,0.3,0.8,0.8v0.3    C-374.7,278.6-375.1,278.9-375.5,278.9z M-375.5,276.8c-0.4,0-0.8-0.3-0.8-0.8v-0.3c0-0.4,0.3-0.8,0.8-0.8c0.5,0,0.8,0.3,0.8,0.8    v0.3C-374.7,276.4-375.1,276.8-375.5,276.8z"/>
	</g>
	<g>
		<path class="st0" d="M-375.5,274.8c-0.4,0-0.8-0.3-0.8-0.7V274c0-0.4,0.3-0.8,0.8-0.8c0.5,0,0.8,0.3,0.8,0.8    S-375.1,274.8-375.5,274.8z"/>
	</g>
	<g>
		<path class="st0" d="M-375.5,300.9c-0.4,0-0.8-0.3-0.8-0.8v-6.9c0-0.4,0.3-0.8,0.8-0.8c0.5,0,0.8,0.3,0.8,0.8v7    C-374.7,300.6-375.1,300.9-375.5,300.9z"/>
	</g>
	<g>
		<path class="st0" d="M-375.5,304c-0.4,0-0.8-0.3-0.8-0.7v-0.1c0-0.4,0.3-0.8,0.8-0.8c0.5,0,0.8,0.3,0.8,0.8    C-374.7,303.7-375.1,304-375.5,304z"/>
	</g>
	<g>
		<path class="st0" d="M-375.5,302.7c-0.4,0-0.8-0.3-0.8-0.8v-0.3c0-0.4,0.3-0.8,0.8-0.8c0.5,0,0.8,0.3,0.8,0.8v0.3    C-374.7,302.4-375.1,302.7-375.5,302.7z"/>
	</g>
	<g>
		<path class="st0" d="M-375.5,299.8c-0.4,0-0.8-0.3-0.8-0.7V299c0-0.4,0.3-0.8,0.8-0.8c0.5,0,0.8,0.3,0.8,0.8    S-375.1,299.8-375.5,299.8z M-377.8,297.4L-377.8,297.4c-0.5,0-0.8-0.3-0.8-0.8s0.3-0.8,0.8-0.8s0.8,0.3,0.8,0.8    S-377.4,297.4-377.8,297.4z"/>
	</g>
	<g>
		<path class="st0" d="M-378.9,297.4h-0.3c-0.4,0-0.8-0.3-0.8-0.8s0.3-0.8,0.8-0.8h0.3c0.4,0,0.8,0.3,0.8,0.8    S-378.5,297.4-378.9,297.4z M-381.1,297.4h-0.3c-0.4,0-0.8-0.3-0.8-0.8s0.3-0.8,0.8-0.8h0.3c0.4,0,0.8,0.3,0.8,0.8    S-380.7,297.4-381.1,297.4z M-383.2,297.4h-0.3c-0.4,0-0.8-0.3-0.8-0.8s0.3-0.8,0.8-0.8h0.3c0.4,0,0.8,0.3,0.8,0.8    S-382.8,297.4-383.2,297.4z M-385.4,297.4h-0.3c-0.4,0-0.8-0.3-0.8-0.8s0.3-0.8,0.8-0.8h0.3c0.4,0,0.8,0.3,0.8,0.8    S-385.1,297.4-385.4,297.4z M-387.5,297.4h-0.3c-0.4,0-0.8-0.3-0.8-0.8s0.3-0.8,0.8-0.8h0.3c0.4,0,0.8,0.3,0.8,0.8    S-387.2,297.4-387.5,297.4z M-389.7,297.4h-0.3c-0.4,0-0.8-0.3-0.8-0.8s0.3-0.8,0.8-0.8h0.3c0.4,0,0.8,0.3,0.8,0.8    S-389.3,297.4-389.7,297.4z M-391.9,297.4h-0.3c-0.4,0-0.8-0.3-0.8-0.8s0.3-0.8,0.8-0.8h0.3c0.4,0,0.8,0.3,0.8,0.8    S-391.5,297.4-391.9,297.4z M-394,297.4h-0.3c-0.4,0-0.8-0.3-0.8-0.8s0.3-0.8,0.8-0.8h0.3c0.4,0,0.8,0.3,0.8,0.8    S-393.6,297.4-394,297.4z M-396.2,297.4h-0.3c-0.4,0-0.8-0.3-0.8-0.8s0.3-0.8,0.8-0.8h0.3c0.4,0,0.8,0.3,0.8,0.8    S-395.7,297.4-396.2,297.4z"/>
	</g>
	<g>
		<path class="st0" d="M-398.1,297.4L-398.1,297.4c-0.5,0-0.8-0.3-0.8-0.8s0.3-0.8,0.8-0.8c0.5,0,0.8,0.3,0.8,0.8    S-397.7,297.4-398.1,297.4z"/>
	</g>
	<g>
		<path class="st0" d="M-372,297.4h-6.9c-0.4,0-0.8-0.3-0.8-0.8s0.3-0.8,0.8-0.8h6.9c0.4,0,0.8,0.3,0.8,0.8S-371.6,297.4-372,297.4z    "/>
	</g>
	<g>
		<path class="st0" d="M-368.6,297.4L-368.6,297.4c-0.5,0-0.8-0.3-0.8-0.8s0.3-0.8,0.8-0.8s0.8,0.3,0.8,0.8    S-368.2,297.4-368.6,297.4z"/>
	</g>
	<g>
		<path class="st0" d="M-369.8,297.4h-0.3c-0.4,0-0.8-0.3-0.8-0.8s0.3-0.8,0.8-0.8h0.3c0.4,0,0.8,0.3,0.8,0.8    S-369.4,297.4-369.8,297.4z"/>
	</g>
	<g>
		<path class="st0" d="M-372.3,297.4L-372.3,297.4c-0.5,0-0.8-0.3-0.8-0.8s0.3-0.8,0.8-0.8c0.5,0,0.8,0.3,0.8,0.8    S-371.9,297.4-372.3,297.4z"/>
	</g>
	<path class="st0" d="M-412,302.9c-0.2,0-0.4-0.1-0.5-0.2c-0.2-0.2-0.3-0.4-0.2-0.7l2-9c0-0.2,0.1-0.3,0.2-0.4l33.1-33.1l0,0   c1.5-1.4,3.9-1.4,5.4,0l2.6,2.6c1.5,1.5,1.5,3.9,0,5.4l-1.6,1.6l0,0l-31.4,31.5c-0.1,0.1-0.2,0.2-0.4,0.2l-9,2   C-411.9,302.9-411.9,302.9-412,302.9z M-409.5,294.5l-1.5,6.6l6.6-1.5L-409.5,294.5z M-406,296.2l3,3l30.5-30.6l-5.9-5.9   l-30.5,30.5L-406,296.2z M-377.4,261.6l5.9,5.9l1.2-1.2c1-1,1-2.4,0-3.4l-2.6-2.6c-1-1-2.4-1-3.4,0L-377.4,261.6z M-373,262.2h-3.1   c-0.3,0-0.6-0.2-0.7-0.5s-0.1-0.6,0.2-0.8c1.2-1.2,3-1.2,4.1,0c0.2,0.2,0.3,0.5,0.2,0.8C-372.5,262-372.7,262.2-373,262.2z"/>
	<g>
		<g>
			<line id="SVGID_1_" class="st0" x1="-408.4" y1="294.5" x2="-382.1" y2="268.2"/>
		</g>
		<g>
			<defs>
				<line id="SVGID_2_" x1="-408.4" y1="294.5" x2="-382.1" y2="268.2"/>
			</defs>
			<use xlink:href="#SVGID_2_" style="overflow:visible;fill:#FFFFFF;"/>
			<clipPath id="SVGID_4_">
				<use xlink:href="#SVGID_2_" style="overflow:visible;"/>
			</clipPath>
			<g class="st1">
				<g>
					<rect id="SVGID_3_" x="-433.5" y="238.4" class="st0" width="85.4" height="85.4"/>
				</g>
			</g>
		</g>
	</g>
	<g>
		<path class="st0" d="M-408.4,295.3c-0.2,0-0.4-0.1-0.5-0.2c-0.3-0.3-0.3-0.8,0-1.1l26.3-26.3c0.3-0.3,0.8-0.3,1.1,0s0.3,0.8,0,1.1    l-26.4,26.2C-408,295.2-408.2,295.3-408.4,295.3z"/>
	</g>
	<g>
		<g>
			<line id="SVGID_5_" class="st0" x1="-406.7" y1="296.2" x2="-380.4" y2="269.9"/>
		</g>
		<g>
			<defs>
				<line id="SVGID_6_" x1="-406.7" y1="296.2" x2="-380.4" y2="269.9"/>
			</defs>
			<use xlink:href="#SVGID_6_" style="overflow:visible;fill:#FFFFFF;"/>
			<clipPath id="SVGID_8_">
				<use xlink:href="#SVGID_6_" style="overflow:visible;"/>
			</clipPath>
			<g class="st2">
				<g>
					<rect id="SVGID_7_" x="-433.5" y="238.4" class="st0" width="85.4" height="85.4"/>
				</g>
			</g>
		</g>
	</g>
	<path class="st0" d="M-406.7,296.9c-0.2,0-0.4-0.1-0.5-0.2c-0.3-0.3-0.3-0.8,0-1.1l26.4-26.4c0.3-0.3,0.8-0.3,1.1,0   c0.3,0.3,0.3,0.8,0,1.1l-26.4,26.4C-406.3,296.8-406.5,296.9-406.7,296.9z"/>
	<path class="st0" d="M-408.9,302c-0.3,0-0.6-0.2-0.7-0.6c-0.1-0.4-0.3-0.8-0.6-1.1s-0.7-0.5-1.1-0.6s-0.6-0.5-0.5-0.9   c0.1-0.4,0.5-0.6,0.9-0.5c0.7,0.2,1.2,0.5,1.7,1c0.5,0.5,0.8,1.1,1,1.7c0.1,0.4-0.1,0.8-0.5,0.9C-408.8,302-408.8,302-408.9,302z"/>
	<path class="st0" d="M-374.5,272.3c-0.2,0-0.4-0.1-0.5-0.2l-7-7c-0.3-0.3-0.3-0.8,0-1.1s0.8-0.3,1.1,0l7,7c0.3,0.3,0.3,0.8,0,1.1   C-374.1,272.3-374.3,272.3-374.5,272.3z"/>
	<path class="st0" d="M-373.8,269.7c-0.2,0-0.4-0.1-0.5-0.2l-4.8-4.8c-0.3-0.3-0.3-0.8,0-1.1s0.8-0.3,1.1,0l4.8,4.8   c0.3,0.3,0.3,0.8,0,1.1C-373.5,269.6-373.6,269.7-373.8,269.7z"/>
</g>
</svg>
