<?xml version="1.0" encoding="utf-8"?>
<!-- Generator: Adobe Illustrator 19.1.0, SVG Export Plug-In . SVG Version: 6.00 Build 0)  -->
<svg xmlns="http://www.w3.org/2000/svg" xmlns:xlink="http://www.w3.org/1999/xlink" version="1.1" id="Layer_1" x="0px" y="0px" viewBox="-429 231 100 100" style="enable-background:new -429 231 100 100;" xml:space="preserve">
<style type="text/css">
	.st0{fill:#FFFFFF;}
	.st1{fill:#FFFFFF;stroke:#FFFFFF;stroke-width:1.5;stroke-linecap:round;stroke-linejoin:round;stroke-miterlimit:10;}
	.st2{clip-path:url(#SVGID_4_);}
	.st3{clip-path:url(#SVGID_8_);}
	.st4{clip-path:url(#SVGID_12_);}
	.st5{clip-path:url(#SVGID_16_);}
	.st6{clip-path:url(#SVGID_20_);}
	.st7{clip-path:url(#SVGID_24_);}
	.st8{clip-path:url(#SVGID_28_);}
	.st9{clip-path:url(#SVGID_32_);}
	.st10{clip-path:url(#SVGID_36_);}
	.st11{clip-path:url(#SVGID_40_);}
	.st12{clip-path:url(#SVGID_44_);}
	.st13{clip-path:url(#SVGID_48_);}
	.st14{clip-path:url(#SVGID_52_);}
	.st15{clip-path:url(#SVGID_56_);}
	.st16{clip-path:url(#SVGID_60_);}
	.st17{clip-path:url(#SVGID_64_);}
	.st18{clip-path:url(#SVGID_68_);}
	.st19{clip-path:url(#SVGID_72_);}
	.st20{clip-path:url(#SVGID_76_);}
	.st21{clip-path:url(#SVGID_80_);}
	.st22{clip-path:url(#SVGID_84_);}
	.st23{clip-path:url(#SVGID_88_);}
	.st24{clip-path:url(#SVGID_92_);}
</style>
<g>
	<g>
		<g>
			<g>
				<g>
					<g>
						<g>
							<path class="st0" d="M-379.2,327.5c-25.5,0-46.2-20.7-46.2-46.2c0-25.5,20.7-46.2,46.2-46.2c25.5,0,46.2,20.7,46.2,46.3         C-333,306.8-353.7,327.5-379.2,327.5z M-379.2,237c-24.4,0-44.2,19.9-44.2,44.2c0,24.4,19.9,44.2,44.2,44.2         c24.4,0,44.2-19.9,44.2-44.2S-354.9,237-379.2,237z"/>
						</g>
					</g>
				</g>
			</g>
		</g>
	</g>
	<g>
		<g>
			<g>
				<g>
					<g>
						<g>
							<g>
								<g>
									<g>
										<g>
											<g>
												<g>
													<g>
														<path class="st0" d="M-369.8,298.3h-18.8c-0.4,0-0.8-0.4-0.8-0.8v-30.4c0-12,6.1-18.9,9.8-21.1c0.3-0.2,0.6-0.2,0.8,0                c3.6,2.2,9.8,9.2,9.8,21.1v30.4C-369,297.9-369.4,298.3-369.8,298.3z M-387.9,296.7h17.3v-29.5                c0-10.8-5.3-17.3-8.6-19.6c-3.4,2.3-8.6,8.7-8.6,19.6V296.7z"/>
													</g>
												</g>
											</g>
										</g>
									</g>
								</g>
							</g>
						</g>
					</g>
				</g>
			</g>
		</g>
	</g>
	<g>
		<g>
			<g>
				<g>
					<g>
						<g>
							<g>
								<g>
									<g>
										<g>
											<g>
												<g>
													<g>
														<path class="st0" d="M-358.1,298.3h-11.4c-0.4,0-0.8-0.4-0.8-0.8v-30.4c0-0.2,0.1-0.5,0.3-0.6                c0.2-0.2,0.4-0.2,0.7-0.2c2.2,0.5,3.8,2.9,3.8,5.8v8.6c0,2.2,1.5,4.2,3.8,4.9c2.8,0.8,4.3,3.1,4.3,6.4v5.5                C-357.4,297.9-357.7,298.3-358.1,298.3z M-368.7,296.7h9.8v-4.6c0-2.7-1.1-4.3-3.2-5c-3-0.9-5-3.5-5-6.3v-8.6                c0-1.6-0.7-3.2-1.6-3.8V296.7z"/>
													</g>
												</g>
											</g>
										</g>
									</g>
								</g>
							</g>
						</g>
					</g>
				</g>
			</g>
		</g>
	</g>
	<g>
		<g>
			<g>
				<g>
					<g>
						<g>
							<path class="st0" d="M-396.7,298.3L-396.7,298.3c-0.5,0-0.8-0.4-0.8-0.8l0,0l0.1-11.1c0-0.4,0.4-0.8,0.8-0.8l0,0         c0.4,0,0.8,0.4,0.8,0.8l0,0l-0.1,11.1C-395.9,297.9-396.2,298.3-396.7,298.3z"/>
						</g>
					</g>
				</g>
			</g>
		</g>
	</g>
	<g>
		<g>
			<g>
				<g>
					<g>
						<g>
							<g>
								<g>
									<g>
										<g>
											<g>
												<g>
													<g>
														<path class="st0" d="M-388.9,298.3h-11.4c-0.4,0-0.8-0.4-0.8-0.8v-5.4c0-3.5,1.5-5.7,4.3-6.4c2.3-0.7,3.9-2.6,3.9-4.9                v-8.6c0-2.9,1.6-5.4,3.8-5.9c0.2,0,0.5,0,0.7,0.2c0.2,0.2,0.3,0.4,0.3,0.6v30.3c0,0.2-0.1,0.4-0.2,0.6                C-388.5,298.2-388.7,298.3-388.9,298.3z M-399.6,296.7h9.9v-28.4c-1,0.7-1.6,2.2-1.6,3.8v8.6c0,3-2,5.5-5,6.3                c-2.1,0.6-3.2,2.2-3.2,5L-399.6,296.7L-399.6,296.7z"/>
													</g>
												</g>
											</g>
										</g>
									</g>
								</g>
							</g>
						</g>
					</g>
				</g>
			</g>
		</g>
	</g>
	<path class="st0" d="M-394.9,299c0-3.2,2.6-5.7,5.7-5.7c3.2,0,5.7,2.6,5.7,5.7"/>
	<g>
		<g>
			<g>
				<g>
					<g>
						<g>
							<g>
								<g>
									<g>
										<g>
											<g>
												<g>
													<g>
														<path class="st0" d="M-382.2,299h-1.5c0-2.7-2.2-4.9-4.9-4.9s-5,2.2-5,4.9h-1.5c0-3.5,2.9-6.5,6.5-6.5                C-385.1,292.6-382.2,295.4-382.2,299z"/>
													</g>
												</g>
											</g>
										</g>
									</g>
								</g>
							</g>
						</g>
					</g>
				</g>
			</g>
		</g>
	</g>
	<g>
		<g>
			<g>
				<g>
					<g>
						<g>
							<g>
								<g>
									<g>
										<g>
											<g>
												<g>
													<g>
														<path class="st0" d="M-383,302.4h-11.4c-0.4,0-0.8-0.4-0.8-0.8V299c0-0.4,0.4-0.8,0.8-0.8h11.4c0.4,0,0.8,0.4,0.8,0.8                v2.7C-382.2,302.2-382.5,302.4-383,302.4z M-393.6,300.9h9.9v-1.2h-9.9V300.9z"/>
													</g>
												</g>
											</g>
										</g>
									</g>
								</g>
							</g>
						</g>
					</g>
				</g>
			</g>
		</g>
	</g>
	<path class="st0" d="M-376,299c0-3.2,2.6-5.7,5.7-5.7c3.2,0,5.7,2.6,5.7,5.7"/>
	<g>
		<g>
			<g>
				<g>
					<g>
						<g>
							<g>
								<g>
									<g>
										<g>
											<g>
												<g>
													<g>
														<path class="st0" d="M-363.3,299h-1.5c0-2.7-2.2-4.9-4.9-4.9c-2.7,0-4.9,2.2-4.9,4.9h-1.5c0-3.5,2.9-6.5,6.5-6.5                C-366.2,292.6-363.3,295.4-363.3,299z"/>
													</g>
												</g>
											</g>
										</g>
									</g>
								</g>
							</g>
						</g>
					</g>
				</g>
			</g>
		</g>
	</g>
	<g>
		<g>
			<g>
				<g>
					<g>
						<g>
							<g>
								<g>
									<g>
										<g>
											<g>
												<g>
													<g>
														<path class="st0" d="M-364.1,302.4h-11.4c-0.4,0-0.8-0.4-0.8-0.8V299c0-0.4,0.4-0.8,0.8-0.8h11.4                c0.4,0,0.8,0.4,0.8,0.8v2.7C-363.3,302.2-363.7,302.4-364.1,302.4z M-374.7,300.9h9.9v-1.2h-9.9V300.9z"/>
													</g>
												</g>
											</g>
										</g>
									</g>
								</g>
							</g>
						</g>
					</g>
				</g>
			</g>
		</g>
	</g>
	<g>
		<g>
			<line id="SVGID_1_" class="st0" x1="-361.9" y1="286.4" x2="-361.9" y2="297.6"/>
		</g>
	</g>
	<g>
		<g>
			<g>
				<g>
					<g>
						<g>
							<g>
								<g>
									<g>
										<g>
											<g>
												<g>
													<g>
														<g>
															<path class="st0" d="M-361.9,298.3c-0.4,0-0.8-0.4-0.8-0.8v-11.1c0-0.4,0.4-0.8,0.8-0.8c0.4,0,0.8,0.4,0.8,0.8v11.1                 C-361.1,297.9-361.4,298.3-361.9,298.3z"/>
														</g>
													</g>
												</g>
											</g>
										</g>
									</g>
								</g>
							</g>
						</g>
					</g>
				</g>
			</g>
		</g>
	</g>
	<g>
		<g>
			<path id="SVGID_3_" class="st0" d="M-379.2,297.5"/>
		</g>
	</g>
	<g>
		<g>
			<g>
				<g>
					<g>
						<g>
							<g>
								<g>
									<g>
										<g>
											<g>
												<g>
													<g>
														<path class="st1" d="M-379.2,297.5"/>
													</g>
												</g>
											</g>
										</g>
									</g>
								</g>
							</g>
						</g>
					</g>
				</g>
			</g>
		</g>
	</g>
	<g>
		<g>
			<g>
				<g>
					<g>
						<g>
							<g>
								<g>
									<g>
										<g>
											<g>
												<g>
													<g>
														<path class="st0" d="M-379.2,255.2c-2.1,0-4.2-0.8-5.9-2.2c-0.3-0.3-0.4-0.8-0.1-1.1s0.8-0.4,1.1-0.1                c1.3,1.2,3.1,1.8,4.9,1.8c1.8,0,3.5-0.7,4.9-1.8c0.3-0.3,0.9-0.2,1.1,0.1c0.3,0.3,0.2,0.9-0.1,1.1                C-375,254.4-377,255.2-379.2,255.2z"/>
													</g>
												</g>
											</g>
										</g>
									</g>
								</g>
							</g>
						</g>
					</g>
				</g>
			</g>
		</g>
	</g>
	<g>
		<g>
			<g>
				<g>
					<g>
						<g>
							<g>
								<g>
									<g>
										<g>
											<g>
												<g>
													<g>
														<path class="st0" d="M-387.4,311.3c-0.4,0-0.8-0.4-0.8-0.8v-6.9c0-0.4,0.4-0.8,0.8-0.8c0.4,0,0.8,0.4,0.8,0.8v6.9                C-386.6,310.9-387,311.3-387.4,311.3z M-390,310.8c-0.4,0-0.8-0.4-0.8-0.8v-6.5c0-0.4,0.4-0.8,0.8-0.8                c0.4,0,0.8,0.4,0.8,0.8v6.5C-389.1,310.5-389.5,310.8-390,310.8z M-392.5,309.1c-0.4,0-0.8-0.4-0.8-0.8v-4.7                c0-0.4,0.4-0.8,0.8-0.8c0.4,0,0.8,0.4,0.8,0.8v4.7C-391.7,308.7-392,309.1-392.5,309.1z M-384.9,308.8                c-0.4,0-0.8-0.4-0.8-0.8v-4.4c0-0.4,0.4-0.8,0.8-0.8c0.4,0,0.8,0.4,0.8,0.8v4.4C-384.1,308.4-384.4,308.8-384.9,308.8                z"/>
													</g>
												</g>
											</g>
										</g>
									</g>
								</g>
							</g>
						</g>
					</g>
				</g>
			</g>
		</g>
	</g>
	<g>
		<g>
			<circle id="SVGID_5_" class="st0" cx="-384.9" cy="309.4" r="0.3"/>
		</g>
		<g>
			<g>
				<defs>
					<circle id="SVGID_2_" cx="-384.9" cy="309.4" r="0.3"/>
				</defs>
				<use xlink:href="#SVGID_2_" style="overflow:visible;fill:#FFFFFF;"/>
				<clipPath id="SVGID_4_">
					<use xlink:href="#SVGID_2_" style="overflow:visible;"/>
				</clipPath>
				<g class="st2">
					<g>
						<rect id="SVGID_7_" x="-425.6" y="234.8" class="st0" width="93.3" height="93.3"/>
					</g>
				</g>
			</g>
		</g>
	</g>
	<g>
		<g>
			<g>
				<g>
					<g>
						<g>
							<g>
								<g>
									<g>
										<g>
											<g>
												<g>
													<g>
														<g>
															<circle class="st0" cx="-384.9" cy="309.4" r="0.6"/>
														</g>
													</g>
												</g>
											</g>
										</g>
									</g>
								</g>
							</g>
						</g>
					</g>
				</g>
			</g>
		</g>
	</g>
	<g>
		<g>
			<circle id="SVGID_9_" class="st0" cx="-384.9" cy="311.1" r="0.3"/>
		</g>
		<g>
			<g>
				<defs>
					<circle id="SVGID_6_" cx="-384.9" cy="311.1" r="0.3"/>
				</defs>
				<use xlink:href="#SVGID_6_" style="overflow:visible;fill:#FFFFFF;"/>
				<clipPath id="SVGID_8_">
					<use xlink:href="#SVGID_6_" style="overflow:visible;"/>
				</clipPath>
				<g class="st3">
					<g>
						<rect id="SVGID_11_" x="-425.6" y="234.8" class="st0" width="93.3" height="93.3"/>
					</g>
				</g>
			</g>
		</g>
	</g>
	<g>
		<g>
			<g>
				<g>
					<g>
						<g>
							<g>
								<g>
									<g>
										<g>
											<g>
												<g>
													<g>
														<g>
															<circle class="st0" cx="-384.9" cy="311.1" r="0.6"/>
														</g>
													</g>
												</g>
											</g>
										</g>
									</g>
								</g>
							</g>
						</g>
					</g>
				</g>
			</g>
		</g>
	</g>
	<g>
		<g>
			<circle id="SVGID_13_" class="st0" cx="-384.9" cy="314" r="0.3"/>
		</g>
		<g>
			<g>
				<defs>
					<circle id="SVGID_10_" cx="-384.9" cy="314" r="0.3"/>
				</defs>
				<use xlink:href="#SVGID_10_" style="overflow:visible;fill:#FFFFFF;"/>
				<clipPath id="SVGID_12_">
					<use xlink:href="#SVGID_10_" style="overflow:visible;"/>
				</clipPath>
				<g class="st4">
					<g>
						<rect id="SVGID_15_" x="-425.6" y="234.8" class="st0" width="93.3" height="93.3"/>
					</g>
				</g>
			</g>
		</g>
	</g>
	<g>
		<g>
			<g>
				<g>
					<g>
						<g>
							<g>
								<g>
									<g>
										<g>
											<g>
												<g>
													<g>
														<g>
															<circle class="st0" cx="-384.9" cy="314" r="0.6"/>
														</g>
													</g>
												</g>
											</g>
										</g>
									</g>
								</g>
							</g>
						</g>
					</g>
				</g>
			</g>
		</g>
	</g>
	<g>
		<g>
			<circle id="SVGID_17_" class="st0" cx="-387.4" cy="312" r="0.3"/>
		</g>
		<g>
			<g>
				<defs>
					<circle id="SVGID_14_" cx="-387.4" cy="312" r="0.3"/>
				</defs>
				<use xlink:href="#SVGID_14_" style="overflow:visible;fill:#FFFFFF;"/>
				<clipPath id="SVGID_16_">
					<use xlink:href="#SVGID_14_" style="overflow:visible;"/>
				</clipPath>
				<g class="st5">
					<g>
						<rect id="SVGID_19_" x="-425.6" y="234.8" class="st0" width="93.3" height="93.3"/>
					</g>
				</g>
			</g>
		</g>
	</g>
	<g>
		<g>
			<g>
				<g>
					<g>
						<g>
							<g>
								<g>
									<g>
										<g>
											<g>
												<g>
													<g>
														<g>
															<circle class="st0" cx="-387.4" cy="312" r="0.6"/>
														</g>
													</g>
												</g>
											</g>
										</g>
									</g>
								</g>
							</g>
						</g>
					</g>
				</g>
			</g>
		</g>
	</g>
	<g>
		<g>
			<circle id="SVGID_21_" class="st0" cx="-387.4" cy="314.1" r="0.3"/>
		</g>
		<g>
			<g>
				<defs>
					<circle id="SVGID_18_" cx="-387.4" cy="314.1" r="0.3"/>
				</defs>
				<use xlink:href="#SVGID_18_" style="overflow:visible;fill:#FFFFFF;"/>
				<clipPath id="SVGID_20_">
					<use xlink:href="#SVGID_18_" style="overflow:visible;"/>
				</clipPath>
				<g class="st6">
					<g>
						<rect id="SVGID_23_" x="-425.6" y="234.8" class="st0" width="93.3" height="93.3"/>
					</g>
				</g>
			</g>
		</g>
	</g>
	<g>
		<g>
			<g>
				<g>
					<g>
						<g>
							<g>
								<g>
									<g>
										<g>
											<g>
												<g>
													<g>
														<g>
															<circle class="st0" cx="-387.4" cy="314.1" r="0.6"/>
														</g>
													</g>
												</g>
											</g>
										</g>
									</g>
								</g>
							</g>
						</g>
					</g>
				</g>
			</g>
		</g>
	</g>
	<g>
		<g>
			<circle id="SVGID_25_" class="st0" cx="-387.4" cy="316.8" r="0.3"/>
		</g>
		<g>
			<g>
				<defs>
					<circle id="SVGID_22_" cx="-387.4" cy="316.8" r="0.3"/>
				</defs>
				<use xlink:href="#SVGID_22_" style="overflow:visible;fill:#FFFFFF;"/>
				<clipPath id="SVGID_24_">
					<use xlink:href="#SVGID_22_" style="overflow:visible;"/>
				</clipPath>
				<g class="st7">
					<g>
						<rect id="SVGID_27_" x="-425.6" y="234.8" class="st0" width="93.3" height="93.3"/>
					</g>
				</g>
			</g>
		</g>
	</g>
	<g>
		<g>
			<g>
				<g>
					<g>
						<g>
							<g>
								<circle class="st0" cx="-387.4" cy="316.8" r="0.6"/>
							</g>
						</g>
					</g>
				</g>
			</g>
		</g>
	</g>
	<g>
		<g>
			<circle id="SVGID_29_" class="st0" cx="-390" cy="311.3" r="0.3"/>
		</g>
		<g>
			<g>
				<defs>
					<circle id="SVGID_26_" cx="-390" cy="311.3" r="0.3"/>
				</defs>
				<use xlink:href="#SVGID_26_" style="overflow:visible;fill:#FFFFFF;"/>
				<clipPath id="SVGID_28_">
					<use xlink:href="#SVGID_26_" style="overflow:visible;"/>
				</clipPath>
				<g class="st8">
					<g>
						<rect id="SVGID_31_" x="-425.6" y="234.8" class="st0" width="93.3" height="93.3"/>
					</g>
				</g>
			</g>
		</g>
	</g>
	<g>
		<g>
			<g>
				<g>
					<g>
						<g>
							<g>
								<g>
									<g>
										<g>
											<g>
												<g>
													<g>
														<g>
															<circle class="st0" cx="-390" cy="311.3" r="0.6"/>
														</g>
													</g>
												</g>
											</g>
										</g>
									</g>
								</g>
							</g>
						</g>
					</g>
				</g>
			</g>
		</g>
	</g>
	<g>
		<g>
			<circle id="SVGID_33_" class="st0" cx="-390" cy="312.9" r="0.3"/>
		</g>
		<g>
			<g>
				<defs>
					<circle id="SVGID_30_" cx="-390" cy="312.9" r="0.3"/>
				</defs>
				<use xlink:href="#SVGID_30_" style="overflow:visible;fill:#FFFFFF;"/>
				<clipPath id="SVGID_32_">
					<use xlink:href="#SVGID_30_" style="overflow:visible;"/>
				</clipPath>
				<g class="st9">
					<g>
						<rect id="SVGID_35_" x="-425.6" y="234.8" class="st0" width="93.3" height="93.3"/>
					</g>
				</g>
			</g>
		</g>
	</g>
	<g>
		<g>
			<g>
				<g>
					<g>
						<g>
							<g>
								<g>
									<g>
										<g>
											<g>
												<g>
													<g>
														<g>
															<circle class="st0" cx="-390" cy="312.9" r="0.6"/>
														</g>
													</g>
												</g>
											</g>
										</g>
									</g>
								</g>
							</g>
						</g>
					</g>
				</g>
			</g>
		</g>
	</g>
	<g>
		<g>
			<circle id="SVGID_37_" class="st0" cx="-390" cy="315.7" r="0.3"/>
		</g>
		<g>
			<g>
				<defs>
					<circle id="SVGID_34_" cx="-390" cy="315.7" r="0.3"/>
				</defs>
				<use xlink:href="#SVGID_34_" style="overflow:visible;fill:#FFFFFF;"/>
				<clipPath id="SVGID_36_">
					<use xlink:href="#SVGID_34_" style="overflow:visible;"/>
				</clipPath>
				<g class="st10">
					<g>
						<rect id="SVGID_39_" x="-425.6" y="234.8" class="st0" width="93.3" height="93.3"/>
					</g>
				</g>
			</g>
		</g>
	</g>
	<g>
		<g>
			<g>
				<g>
					<g>
						<g>
							<g>
								<circle class="st0" cx="-390" cy="315.7" r="0.6"/>
							</g>
						</g>
					</g>
				</g>
			</g>
		</g>
	</g>
	<g>
		<g>
			<circle id="SVGID_41_" class="st0" cx="-392.5" cy="309.6" r="0.3"/>
		</g>
		<g>
			<g>
				<defs>
					<circle id="SVGID_38_" cx="-392.5" cy="309.6" r="0.3"/>
				</defs>
				<use xlink:href="#SVGID_38_" style="overflow:visible;fill:#FFFFFF;"/>
				<clipPath id="SVGID_40_">
					<use xlink:href="#SVGID_38_" style="overflow:visible;"/>
				</clipPath>
				<g class="st11">
					<g>
						<rect id="SVGID_43_" x="-425.6" y="234.8" class="st0" width="93.3" height="93.3"/>
					</g>
				</g>
			</g>
		</g>
	</g>
	<g>
		<g>
			<g>
				<g>
					<g>
						<g>
							<g>
								<g>
									<g>
										<g>
											<g>
												<g>
													<g>
														<g>
															<circle class="st0" cx="-392.5" cy="309.6" r="0.6"/>
														</g>
													</g>
												</g>
											</g>
										</g>
									</g>
								</g>
							</g>
						</g>
					</g>
				</g>
			</g>
		</g>
	</g>
	<g>
		<g>
			<circle id="SVGID_45_" class="st0" cx="-392.5" cy="311.7" r="0.3"/>
		</g>
		<g>
			<g>
				<defs>
					<circle id="SVGID_42_" cx="-392.5" cy="311.7" r="0.3"/>
				</defs>
				<use xlink:href="#SVGID_42_" style="overflow:visible;fill:#FFFFFF;"/>
				<clipPath id="SVGID_44_">
					<use xlink:href="#SVGID_42_" style="overflow:visible;"/>
				</clipPath>
				<g class="st12">
					<g>
						<rect id="SVGID_47_" x="-425.6" y="234.8" class="st0" width="93.3" height="93.3"/>
					</g>
				</g>
			</g>
		</g>
	</g>
	<g>
		<g>
			<g>
				<g>
					<g>
						<g>
							<g>
								<g>
									<g>
										<g>
											<g>
												<g>
													<g>
														<g>
															<circle class="st0" cx="-392.5" cy="311.7" r="0.6"/>
														</g>
													</g>
												</g>
											</g>
										</g>
									</g>
								</g>
							</g>
						</g>
					</g>
				</g>
			</g>
		</g>
	</g>
	<g>
		<g>
			<circle id="SVGID_49_" class="st0" cx="-392.5" cy="314.4" r="0.3"/>
		</g>
		<g>
			<g>
				<defs>
					<circle id="SVGID_46_" cx="-392.5" cy="314.4" r="0.3"/>
				</defs>
				<use xlink:href="#SVGID_46_" style="overflow:visible;fill:#FFFFFF;"/>
				<clipPath id="SVGID_48_">
					<use xlink:href="#SVGID_46_" style="overflow:visible;"/>
				</clipPath>
				<g class="st13">
					<g>
						<rect id="SVGID_51_" x="-425.6" y="234.8" class="st0" width="93.3" height="93.3"/>
					</g>
				</g>
			</g>
		</g>
	</g>
	<g>
		<g>
			<g>
				<g>
					<g>
						<g>
							<g>
								<g>
									<g>
										<g>
											<g>
												<g>
													<g>
														<circle class="st0" cx="-392.5" cy="314.4" r="0.6"/>
													</g>
												</g>
											</g>
										</g>
									</g>
								</g>
							</g>
						</g>
					</g>
				</g>
			</g>
		</g>
	</g>
	<g>
		<g>
			<g>
				<g>
					<g>
						<g>
							<g>
								<g>
									<g>
										<g>
											<g>
												<g>
													<g>
														<path class="st0" d="M-371.1,311.3c-0.4,0-0.8-0.4-0.8-0.8v-6.9c0-0.4,0.4-0.8,0.8-0.8c0.4,0,0.8,0.4,0.8,0.8v6.9                C-370.3,310.9-370.6,311.3-371.1,311.3z M-368.5,310.8c-0.4,0-0.8-0.4-0.8-0.8v-6.5c0-0.4,0.4-0.8,0.8-0.8                c0.4,0,0.8,0.4,0.8,0.8v6.5C-367.7,310.5-368.1,310.8-368.5,310.8z M-366,309.1c-0.4,0-0.8-0.4-0.8-0.8v-4.7                c0-0.4,0.4-0.8,0.8-0.8c0.4,0,0.8,0.4,0.8,0.8v4.7C-365.2,308.7-365.6,309.1-366,309.1z M-373.6,308.8                c-0.4,0-0.8-0.4-0.8-0.8v-4.4c0-0.4,0.4-0.8,0.8-0.8c0.4,0,0.8,0.4,0.8,0.8v4.4C-372.8,308.4-373.2,308.8-373.6,308.8                z"/>
													</g>
												</g>
											</g>
										</g>
									</g>
								</g>
							</g>
						</g>
					</g>
				</g>
			</g>
		</g>
	</g>
	<g>
		<g>
			<circle id="SVGID_53_" class="st0" cx="-373.6" cy="309.4" r="0.3"/>
		</g>
		<g>
			<g>
				<defs>
					<circle id="SVGID_50_" cx="-373.6" cy="309.4" r="0.3"/>
				</defs>
				<use xlink:href="#SVGID_50_" style="overflow:visible;fill:#FFFFFF;"/>
				<clipPath id="SVGID_52_">
					<use xlink:href="#SVGID_50_" style="overflow:visible;"/>
				</clipPath>
				<g class="st14">
					<g>
						<rect id="SVGID_55_" x="-425.6" y="234.8" class="st0" width="93.3" height="93.3"/>
					</g>
				</g>
			</g>
		</g>
	</g>
	<g>
		<g>
			<g>
				<g>
					<g>
						<g>
							<g>
								<g>
									<g>
										<g>
											<g>
												<g>
													<g>
														<g>
															<circle class="st0" cx="-373.6" cy="309.4" r="0.6"/>
														</g>
													</g>
												</g>
											</g>
										</g>
									</g>
								</g>
							</g>
						</g>
					</g>
				</g>
			</g>
		</g>
	</g>
	<g>
		<g>
			<circle id="SVGID_57_" class="st0" cx="-373.6" cy="311.1" r="0.3"/>
		</g>
		<g>
			<g>
				<defs>
					<circle id="SVGID_54_" cx="-373.6" cy="311.1" r="0.3"/>
				</defs>
				<use xlink:href="#SVGID_54_" style="overflow:visible;fill:#FFFFFF;"/>
				<clipPath id="SVGID_56_">
					<use xlink:href="#SVGID_54_" style="overflow:visible;"/>
				</clipPath>
				<g class="st15">
					<g>
						<rect id="SVGID_59_" x="-425.6" y="234.8" class="st0" width="93.3" height="93.3"/>
					</g>
				</g>
			</g>
		</g>
	</g>
	<g>
		<g>
			<g>
				<g>
					<g>
						<g>
							<g>
								<g>
									<g>
										<g>
											<g>
												<g>
													<g>
														<g>
															<circle class="st0" cx="-373.6" cy="311.1" r="0.6"/>
														</g>
													</g>
												</g>
											</g>
										</g>
									</g>
								</g>
							</g>
						</g>
					</g>
				</g>
			</g>
		</g>
	</g>
	<g>
		<g>
			<circle id="SVGID_61_" class="st0" cx="-373.6" cy="314" r="0.3"/>
		</g>
		<g>
			<g>
				<defs>
					<circle id="SVGID_58_" cx="-373.6" cy="314" r="0.3"/>
				</defs>
				<use xlink:href="#SVGID_58_" style="overflow:visible;fill:#FFFFFF;"/>
				<clipPath id="SVGID_60_">
					<use xlink:href="#SVGID_58_" style="overflow:visible;"/>
				</clipPath>
				<g class="st16">
					<g>
						<rect id="SVGID_63_" x="-425.6" y="234.8" class="st0" width="93.3" height="93.3"/>
					</g>
				</g>
			</g>
		</g>
	</g>
	<g>
		<g>
			<g>
				<g>
					<g>
						<g>
							<g>
								<g>
									<g>
										<g>
											<g>
												<g>
													<g>
														<g>
															<circle class="st0" cx="-373.6" cy="314" r="0.6"/>
														</g>
													</g>
												</g>
											</g>
										</g>
									</g>
								</g>
							</g>
						</g>
					</g>
				</g>
			</g>
		</g>
	</g>
	<g>
		<g>
			<circle id="SVGID_65_" class="st0" cx="-371.1" cy="312" r="0.3"/>
		</g>
		<g>
			<g>
				<defs>
					<circle id="SVGID_62_" cx="-371.1" cy="312" r="0.3"/>
				</defs>
				<use xlink:href="#SVGID_62_" style="overflow:visible;fill:#FFFFFF;"/>
				<clipPath id="SVGID_64_">
					<use xlink:href="#SVGID_62_" style="overflow:visible;"/>
				</clipPath>
				<g class="st17">
					<g>
						<rect id="SVGID_67_" x="-425.6" y="234.8" class="st0" width="93.3" height="93.3"/>
					</g>
				</g>
			</g>
		</g>
	</g>
	<g>
		<g>
			<g>
				<g>
					<g>
						<g>
							<g>
								<g>
									<g>
										<g>
											<g>
												<g>
													<g>
														<g>
															<circle class="st0" cx="-371.1" cy="312" r="0.6"/>
														</g>
													</g>
												</g>
											</g>
										</g>
									</g>
								</g>
							</g>
						</g>
					</g>
				</g>
			</g>
		</g>
	</g>
	<g>
		<g>
			<circle id="SVGID_69_" class="st0" cx="-371.1" cy="314.1" r="0.3"/>
		</g>
		<g>
			<g>
				<defs>
					<circle id="SVGID_66_" cx="-371.1" cy="314.1" r="0.3"/>
				</defs>
				<use xlink:href="#SVGID_66_" style="overflow:visible;fill:#FFFFFF;"/>
				<clipPath id="SVGID_68_">
					<use xlink:href="#SVGID_66_" style="overflow:visible;"/>
				</clipPath>
				<g class="st18">
					<g>
						<rect id="SVGID_71_" x="-425.6" y="234.8" class="st0" width="93.3" height="93.3"/>
					</g>
				</g>
			</g>
		</g>
	</g>
	<g>
		<g>
			<g>
				<g>
					<g>
						<g>
							<g>
								<g>
									<g>
										<g>
											<g>
												<g>
													<g>
														<g>
															<circle class="st0" cx="-371.1" cy="314.1" r="0.6"/>
														</g>
													</g>
												</g>
											</g>
										</g>
									</g>
								</g>
							</g>
						</g>
					</g>
				</g>
			</g>
		</g>
	</g>
	<g>
		<g>
			<circle id="SVGID_73_" class="st0" cx="-371.1" cy="316.8" r="0.3"/>
		</g>
		<g>
			<g>
				<defs>
					<circle id="SVGID_70_" cx="-371.1" cy="316.8" r="0.3"/>
				</defs>
				<use xlink:href="#SVGID_70_" style="overflow:visible;fill:#FFFFFF;"/>
				<clipPath id="SVGID_72_">
					<use xlink:href="#SVGID_70_" style="overflow:visible;"/>
				</clipPath>
				<g class="st19">
					<g>
						<rect id="SVGID_75_" x="-425.6" y="234.8" class="st0" width="93.3" height="93.3"/>
					</g>
				</g>
			</g>
		</g>
	</g>
	<g>
		<g>
			<g>
				<g>
					<g>
						<g>
							<g>
								<circle class="st0" cx="-371.1" cy="316.8" r="0.6"/>
							</g>
						</g>
					</g>
				</g>
			</g>
		</g>
	</g>
	<g>
		<g>
			<circle id="SVGID_77_" class="st0" cx="-368.5" cy="311.3" r="0.3"/>
		</g>
		<g>
			<g>
				<defs>
					<circle id="SVGID_74_" cx="-368.5" cy="311.3" r="0.3"/>
				</defs>
				<use xlink:href="#SVGID_74_" style="overflow:visible;fill:#FFFFFF;"/>
				<clipPath id="SVGID_76_">
					<use xlink:href="#SVGID_74_" style="overflow:visible;"/>
				</clipPath>
				<g class="st20">
					<g>
						<rect id="SVGID_79_" x="-425.6" y="234.8" class="st0" width="93.3" height="93.3"/>
					</g>
				</g>
			</g>
		</g>
	</g>
	<g>
		<g>
			<g>
				<g>
					<g>
						<g>
							<g>
								<g>
									<g>
										<g>
											<g>
												<g>
													<g>
														<g>
															<circle class="st0" cx="-368.5" cy="311.3" r="0.6"/>
														</g>
													</g>
												</g>
											</g>
										</g>
									</g>
								</g>
							</g>
						</g>
					</g>
				</g>
			</g>
		</g>
	</g>
	<g>
		<g>
			<circle id="SVGID_81_" class="st0" cx="-368.5" cy="312.9" r="0.3"/>
		</g>
		<g>
			<g>
				<defs>
					<circle id="SVGID_78_" cx="-368.5" cy="312.9" r="0.3"/>
				</defs>
				<use xlink:href="#SVGID_78_" style="overflow:visible;fill:#FFFFFF;"/>
				<clipPath id="SVGID_80_">
					<use xlink:href="#SVGID_78_" style="overflow:visible;"/>
				</clipPath>
				<g class="st21">
					<g>
						<rect id="SVGID_83_" x="-425.6" y="234.8" class="st0" width="93.3" height="93.3"/>
					</g>
				</g>
			</g>
		</g>
	</g>
	<g>
		<g>
			<g>
				<g>
					<g>
						<g>
							<g>
								<g>
									<g>
										<g>
											<g>
												<g>
													<g>
														<g>
															<circle class="st0" cx="-368.5" cy="312.9" r="0.6"/>
														</g>
													</g>
												</g>
											</g>
										</g>
									</g>
								</g>
							</g>
						</g>
					</g>
				</g>
			</g>
		</g>
	</g>
	<g>
		<g>
			<circle id="SVGID_85_" class="st0" cx="-368.5" cy="315.7" r="0.3"/>
		</g>
		<g>
			<g>
				<defs>
					<circle id="SVGID_82_" cx="-368.5" cy="315.7" r="0.3"/>
				</defs>
				<use xlink:href="#SVGID_82_" style="overflow:visible;fill:#FFFFFF;"/>
				<clipPath id="SVGID_84_">
					<use xlink:href="#SVGID_82_" style="overflow:visible;"/>
				</clipPath>
				<g class="st22">
					<g>
						<rect id="SVGID_87_" x="-425.6" y="234.8" class="st0" width="93.3" height="93.3"/>
					</g>
				</g>
			</g>
		</g>
	</g>
	<g>
		<g>
			<g>
				<g>
					<g>
						<g>
							<g>
								<circle class="st0" cx="-368.5" cy="315.7" r="0.6"/>
							</g>
						</g>
					</g>
				</g>
			</g>
		</g>
	</g>
	<g>
		<g>
			<circle id="SVGID_89_" class="st0" cx="-366" cy="309.6" r="0.3"/>
		</g>
		<g>
			<g>
				<defs>
					<circle id="SVGID_86_" cx="-366" cy="309.6" r="0.3"/>
				</defs>
				<use xlink:href="#SVGID_86_" style="overflow:visible;fill:#FFFFFF;"/>
				<clipPath id="SVGID_88_">
					<use xlink:href="#SVGID_86_" style="overflow:visible;"/>
				</clipPath>
				<g class="st23">
					<g>
						<rect id="SVGID_91_" x="-425.6" y="234.8" class="st0" width="93.3" height="93.3"/>
					</g>
				</g>
			</g>
		</g>
	</g>
	<g>
		<g>
			<g>
				<g>
					<g>
						<g>
							<g>
								<g>
									<g>
										<g>
											<g>
												<g>
													<g>
														<g>
															<circle class="st0" cx="-366" cy="309.6" r="0.6"/>
														</g>
													</g>
												</g>
											</g>
										</g>
									</g>
								</g>
							</g>
						</g>
					</g>
				</g>
			</g>
		</g>
	</g>
	<g>
		<g>
			<circle id="SVGID_93_" class="st0" cx="-366" cy="311.7" r="0.3"/>
		</g>
		<g>
			<g>
				<defs>
					<circle id="SVGID_90_" cx="-366" cy="311.7" r="0.3"/>
				</defs>
				<use xlink:href="#SVGID_90_" style="overflow:visible;fill:#FFFFFF;"/>
				<clipPath id="SVGID_92_">
					<use xlink:href="#SVGID_90_" style="overflow:visible;"/>
				</clipPath>
				<g class="st24">
					<g>
						<rect id="SVGID_95_" x="-425.6" y="234.8" class="st0" width="93.3" height="93.3"/>
					</g>
				</g>
			</g>
		</g>
	</g>
	<g>
		<g>
			<g>
				<g>
					<g>
						<g>
							<g>
								<g>
									<g>
										<g>
											<g>
												<g>
													<g>
														<g>
															<circle class="st0" cx="-366" cy="311.7" r="0.6"/>
														</g>
													</g>
												</g>
											</g>
										</g>
									</g>
								</g>
							</g>
						</g>
					</g>
				</g>
			</g>
		</g>
	</g>
	<g>
		<g>
			<circle id="SVGID_97_" class="st0" cx="-366" cy="314.4" r="0.3"/>
		</g>
	</g>
	<g>
		<g>
			<g>
				<g>
					<g>
						<g>
							<g>
								<g>
									<g>
										<g>
											<g>
												<g>
													<g>
														<circle class="st0" cx="-366" cy="314.4" r="0.6"/>
													</g>
												</g>
											</g>
										</g>
									</g>
								</g>
							</g>
						</g>
					</g>
				</g>
			</g>
		</g>
	</g>
	<g>
		<g>
			<g>
				<g>
					<g>
						<g>
							<g>
								<g>
									<g>
										<g>
											<g>
												<g>
													<g>
														<path class="st0" d="M-379.2,272.7c-4,0-7.3-3.3-7.3-7.3s3.3-7.3,7.3-7.3c4,0,7.3,3.3,7.3,7.3                S-375.2,272.7-379.2,272.7z M-379.2,259.7c-3.2,0-5.8,2.6-5.8,5.8s2.6,5.8,5.8,5.8c3.2,0,5.8-2.6,5.8-5.8                S-376.1,259.7-379.2,259.7z M-379.2,271.1c-3.1,0-5.7-2.5-5.7-5.7c0-3.1,2.5-5.7,5.7-5.7c3.2,0,5.7,2.5,5.7,5.7                C-373.6,268.5-376.2,271.1-379.2,271.1z M-379.2,261.3c-2.3,0-4.1,1.8-4.1,4.1c0,2.3,1.8,4.1,4.1,4.1                c2.3,0,4.1-1.8,4.1-4.1C-375.1,263.1-376.9,261.3-379.2,261.3z M-382.3,265.9c-0.1,0-0.2,0-0.3,0                c-0.3-0.1-0.6-0.4-0.6-0.8c0-1.4,1-2.8,2.4-3.3c0.3-0.1,0.7,0,0.9,0.3s0.2,0.7,0,0.9l-1.8,2.5                C-381.8,265.8-382.1,265.9-382.3,265.9z"/>
													</g>
												</g>
											</g>
										</g>
									</g>
								</g>
							</g>
						</g>
					</g>
				</g>
			</g>
		</g>
	</g>
</g>
</svg>
